# xmcd
#
# Track frame offsets: 
#        150
#        24362
#        47339
#        64764
#        82951
#        97523
#        121941
#        139032
#        159708
#        186403
#        202646
#        232746
#        250555
#        262261
#
# Disc length: 3864 seconds
#
# Revision: 1
# Processed by: cddbd v1.5.2PL0 Copyright (c) Steve Scherf et al.
# Submitted via: ExactAudioCopyFreeDBPlugin 1.0
#
DISCID=a30f160e
DTITLE=群星【英】 - TEST-CD试音极品13CDB
DYEAR=2013
DGENRE=stereo
TTITLE0=You're A Woman
TTITLE1=Cha Cha Cha
TTITLE2=Boys
TTITLE3=反叛
TTITLE4=无言的温柔
TTITLE5=Touch By Touch
TTITLE6=You Can Win If You Want
TTITLE7=Lady Of Ice
TTITLE8=Dracula's Tango
TTITLE9=Lady Valentine
TTITLE10=Tarzan Boy
TTITLE11=灰色
TTITLE12=Tell By Your Eys
TTITLE13=滴汗
EXTD=
EXTT0=
EXTT1=
EXTT2=
EXTT3=
EXTT4=
EXTT5=
EXTT6=
EXTT7=
EXTT8=
EXTT9=
EXTT10=
EXTT11=
EXTT12=
EXTT13=
PLAYORDER=
